<svg width="36" height="36" viewBox="0 0 36 36" fill="none" xmlns="http://www.w3.org/2000/svg">
<g clip-path="url(#clip0_19_408)">
<path d="M35.6453 14.8852C35.5478 14.8087 34.6365 14.13 32.7143 14.13C32.2065 14.1322 31.7003 14.175 31.2 14.2582C30.828 11.7427 28.7858 10.5607 28.6913 10.506L28.1753 10.212L27.8355 10.695C27.4103 11.3445 27.0345 12.015 26.8523 12.7672C26.508 14.2035 26.7173 15.552 27.4568 16.7047C26.5628 17.196 25.0395 17.2395 24.75 17.25H1.18651C0.567005 17.2507 0.0645052 17.745 0.0607552 18.3555C0.0330052 20.4052 0.325505 22.5202 1.04026 24.4447C1.85701 26.5582 3.07276 28.1152 4.65376 29.0677C6.42526 30.138 9.30376 30.75 12.567 30.75C14.0408 30.7545 15.5123 30.6232 16.9613 30.357C18.9758 29.9917 20.9145 29.2972 22.6965 28.302C24.165 27.4627 25.4865 26.3955 26.6108 25.1407C28.4895 23.0422 29.6085 20.706 30.441 18.6292C30.5528 18.6292 30.6645 18.6292 30.7725 18.6292C32.8298 18.6292 34.0943 17.817 34.7918 17.1367C35.2553 16.7025 35.6175 16.1737 35.8523 15.588L36 15.162L35.6453 14.8852Z" fill="#2395EC"/>
<path d="M6 16.5H3.75C3.336 16.5 3 16.164 3 15.75V13.5C3 13.086 3.336 12.75 3.75 12.75H6C6.414 12.75 6.75 13.086 6.75 13.5V15.75C6.75 16.164 6.414 16.5 6 16.5Z" fill="#2395EC"/>
<path d="M10.5 16.5H8.25C7.836 16.5 7.5 16.164 7.5 15.75V13.5C7.5 13.086 7.836 12.75 8.25 12.75H10.5C10.914 12.75 11.25 13.086 11.25 13.5V15.75C11.25 16.164 10.914 16.5 10.5 16.5Z" fill="#2395EC"/>
<path d="M15 16.5H12.75C12.336 16.5 12 16.164 12 15.75V13.5C12 13.086 12.336 12.75 12.75 12.75H15C15.414 12.75 15.75 13.086 15.75 13.5V15.75C15.75 16.164 15.414 16.5 15 16.5Z" fill="#2395EC"/>
<path d="M19.5 16.5H17.25C16.836 16.5 16.5 16.164 16.5 15.75V13.5C16.5 13.086 16.836 12.75 17.25 12.75H19.5C19.914 12.75 20.25 13.086 20.25 13.5V15.75C20.25 16.164 19.914 16.5 19.5 16.5Z" fill="#2395EC"/>
<path d="M10.5 12H8.25C7.836 12 7.5 11.664 7.5 11.25V9C7.5 8.586 7.836 8.25 8.25 8.25H10.5C10.914 8.25 11.25 8.586 11.25 9V11.25C11.25 11.664 10.914 12 10.5 12Z" fill="#2395EC"/>
<path d="M15 12H12.75C12.336 12 12 11.664 12 11.25V9C12 8.586 12.336 8.25 12.75 8.25H15C15.414 8.25 15.75 8.586 15.75 9V11.25C15.75 11.664 15.414 12 15 12Z" fill="#2395EC"/>
<path d="M19.5 12H17.25C16.836 12 16.5 11.664 16.5 11.25V9C16.5 8.586 16.836 8.25 17.25 8.25H19.5C19.914 8.25 20.25 8.586 20.25 9V11.25C20.25 11.664 19.914 12 19.5 12Z" fill="#2395EC"/>
<path d="M19.5 7.5H17.25C16.836 7.5 16.5 7.164 16.5 6.75V4.5C16.5 4.086 16.836 3.75 17.25 3.75H19.5C19.914 3.75 20.25 4.086 20.25 4.5V6.75C20.25 7.164 19.914 7.5 19.5 7.5Z" fill="#2395EC"/>
<path d="M24 16.5H21.75C21.336 16.5 21 16.164 21 15.75V13.5C21 13.086 21.336 12.75 21.75 12.75H24C24.414 12.75 24.75 13.086 24.75 13.5V15.75C24.75 16.164 24.414 16.5 24 16.5Z" fill="#2395EC"/>
</g>
<defs>
<clipPath id="clip0_19_408">
<rect width="36" height="36" fill="white"/>
</clipPath>
</defs>
</svg>
