<svg width="193" height="197" viewBox="0 0 193 197" fill="none" xmlns="http://www.w3.org/2000/svg">
<path fill-rule="evenodd" clip-rule="evenodd" d="M96.0838 101.152C64.5242 100.759 44.1752 76.4557 44.0226 70.6796C43.8726 64.9113 68.1869 1.16764 96.0838 0C123.978 1.16764 148.292 64.9113 148.142 70.6796C147.992 76.4557 127.641 100.759 96.0838 101.152ZM96.3528 130.581C99.2395 130.581 101.58 132.924 101.58 135.814C101.58 138.705 99.2395 141.049 96.3528 141.049C93.4635 141.049 91.1226 138.705 91.1226 135.814C91.1226 132.924 93.4635 130.581 96.3528 130.581ZM103.994 151.389H106.689C107.297 151.389 107.83 151.71 108.13 152.192L111.267 156.378C112.597 158.154 109.896 160.181 108.567 158.403L105.851 154.781H102.721C101.26 157.429 98.9498 159.14 96.3528 159.14C93.7532 159.14 91.4459 157.429 89.9819 154.781H86.3141L83.5981 158.403C82.2686 160.181 79.5681 158.154 80.9002 156.378L84.0352 152.192C84.3353 151.71 84.8681 151.389 85.476 151.389H88.7093C88.4739 150.343 88.3446 149.23 88.3446 148.075C88.3446 146.998 88.4558 145.955 88.6653 144.971H86.2158L84.3974 146.98C82.91 148.624 80.4088 146.359 81.8961 144.715L84.1206 142.258C84.4284 141.846 84.9224 141.579 85.476 141.579H89.8681C90.3078 140.743 90.8303 139.995 91.4175 139.361C92.5556 140.94 94.3766 141.895 96.3528 141.895C98.3264 141.895 100.15 140.94 101.285 139.361C101.873 139.995 102.395 140.743 102.835 141.579H106.689C107.245 141.579 107.737 141.846 108.044 142.258L110.271 144.715C111.756 146.359 109.255 148.624 107.77 146.98L105.949 144.971H104.04C104.247 145.955 104.358 146.998 104.358 148.075C104.358 149.23 104.232 150.343 103.994 151.389ZM96.0838 122.491C109.754 122.491 120.838 133.587 120.838 147.27C120.838 160.953 109.754 172.047 96.0838 172.047C82.4108 172.047 71.3271 160.953 71.3271 147.27C71.3271 133.587 82.4108 122.491 96.0838 122.491ZM96.0838 127.371C85.1009 127.371 76.2003 136.28 76.2003 147.27C76.2003 158.26 85.1009 167.169 96.0838 167.169C107.064 167.169 115.965 158.26 115.965 147.27C115.965 136.28 107.064 127.371 96.0838 127.371ZM3.58314 172.018H24.4599C21.837 169.033 19.5918 166.19 18.2545 164.318C11.2034 154.454 12.0078 146.654 16.2344 136.311C19.8557 127.443 24.8789 111.648 29.8168 104.36C33.9062 98.3223 44.7649 92.4531 51.0893 88.3262C53.5931 86.6951 53.5517 86.6615 54.695 88.7663C61.6091 101.494 83.0549 103.938 96.0838 106.581C109.11 103.938 130.558 101.494 137.473 88.7663C138.613 86.6615 138.574 86.6951 141.078 88.3262C147.4 92.4531 158.259 98.3223 162.348 104.36C167.289 111.648 172.309 127.443 175.931 136.311C180.183 146.718 180.85 154.61 173.91 164.318C172.573 166.19 170.328 169.033 167.705 172.018H188.582C193.359 172.018 193.359 179.247 188.582 179.247H160.726C157.69 182.043 154.715 184.243 152.421 184.891V196.484H39.7443V184.891C37.4499 184.243 34.4753 182.043 31.4386 179.247H3.58314C-1.19438 179.247 -1.19438 172.018 3.58314 172.018ZM147.547 184.779H44.6175V191.606H147.547V184.779ZM44.6175 179.902H147.547V117.533C147.547 115.234 145.675 113.377 143.383 113.364H48.7846C46.4954 113.377 44.6175 115.231 44.6175 117.533V179.902ZM96.0838 61.8796H118.983C120.952 61.8796 123.194 63.5961 122.561 65.4576L115.424 86.4466C110.352 92.0958 104.552 93.9935 96.2053 95.477H95.9596C87.6125 93.9935 81.8133 92.0958 76.7409 86.4466L69.6044 65.4576C68.9707 63.5961 71.2133 61.8796 73.1817 61.8796H96.0838ZM56.6014 56.6628C62.636 40.6473 78.4765 9.06149 96.0838 8.32362C113.688 9.06149 129.532 40.6473 135.564 56.6628C125.962 52.9528 111.836 50.6071 96.0838 50.6071C80.3312 50.6071 66.203 52.9528 56.6014 56.6628Z" fill="#F4B400"/>
</svg>
