<svg width="35" height="35" viewBox="0 0 35 35" fill="none" xmlns="http://www.w3.org/2000/svg">
<path d="M34.1241 13.9724C34.0055 14.0927 34.181 14.2285 34.3376 14.175C34.0181 14.6383 33.6031 14.6571 33.3525 14.478C33.2172 14.3264 33.4936 14.4224 33.7138 14.4199C33.9665 14.417 34.1664 14.2919 34.1388 14.2308C34.0321 14.1999 33.9078 14.3356 33.7372 14.3216C33.3652 14.2912 32.8948 14.2046 32.8882 14.0586C32.8837 13.984 32.9655 13.7659 33.0274 13.7882C33.1141 13.8491 33.13 13.9664 33.1901 13.9797C33.2289 13.9883 33.2598 13.8965 33.3667 13.7977C33.4091 13.7631 33.4135 13.7867 33.4135 13.8121C33.4135 13.8285 33.4412 13.8206 33.4948 13.7366C33.6015 13.5619 33.459 13.1763 33.2926 13.0027C33.121 12.8973 33.3191 12.7116 33.4948 12.7032C33.8948 12.6679 33.575 12.3075 33.1578 12.471C32.8152 12.5899 32.7182 12.7841 32.4841 12.8852C32.1927 13.0111 32.0908 12.9479 31.9381 13.0086C31.5276 13.1718 31.2852 13.4116 30.8588 13.2049C30.5435 13.0685 30.7032 13.2499 30.8195 13.4009C30.9038 13.5104 30.9714 13.5888 30.8064 13.6542C30.2504 13.9176 30.4002 13.4527 30.1699 13.4371C29.6794 12.9222 30.0351 10.8161 27.9383 10.232C26.8932 9.77303 26.2205 9.81964 25.8865 9.558C26.8338 8.75673 28.0038 10.3948 29.9378 10.4941C31.0231 10.5178 30.4972 11.0573 31.6376 11.3253C32.4665 12.0874 32.6453 12.1566 32.4239 11.0557C32.386 10.7735 32.0597 11.0006 31.9222 10.7786C31.8434 10.6202 32.1409 10.5896 32.4839 10.9284C33.121 11.5431 33.4424 10.8598 33.5922 11.1006C33.7014 11.2654 33.8761 10.9627 34.2443 10.8348C34.4656 10.7579 34.7027 10.628 34.6855 10.5764C34.6842 10.3948 33.9541 10.4541 33.7045 10.2769C33.4424 10.0485 33.7825 10.5665 33.5248 10.6663C33.0929 10.8691 32.8215 10.6413 32.4689 10.3218C32.8495 10.0828 32.9407 10.007 32.8807 10.202C32.8059 10.6101 33.3363 10.061 33.4574 9.67782C33.4573 9.44336 33.968 9.44151 34.0564 9.2959C34.0383 9.19356 33.0928 9.03258 32.9706 9.07125C32.4221 9.15924 32.2006 9.29635 32.057 9.07873C31.8948 8.84518 31.2992 8.67996 30.8663 8.89152C30.5362 9.02902 30.1494 9.01098 29.9774 9.0461C29.8796 9.06606 29.8496 9.1798 29.9303 9.21353C30.241 9.44006 29.1412 9.41197 28.6722 9.15362C28.397 8.93926 28.1021 9.08903 28.0132 8.577C27.8681 7.98915 27.7932 8.48995 27.5115 8.15765C27.2947 7.82023 27.376 7.66327 27.8335 7.9929C27.9907 8.09774 28.2229 8.255 28.3502 8.35235C28.6948 8.62044 28.446 8.6023 28.4925 8.78668C28.5407 8.8335 28.7133 8.76978 28.9836 8.69432C29.315 8.6018 29.7538 8.48176 29.803 8.40477C29.7607 8.30336 29.4821 8.28591 29.2394 8.18885C29.0678 8.1202 28.9073 8.08084 28.817 8.07583C28.6773 8.10587 28.7643 8.30231 28.506 8.0207C28.5575 7.91304 29.0803 7.99852 29.5858 7.76824C29.89 7.58197 31.472 7.5492 31.6976 7.75326C32.2536 8.02192 32.2022 7.87904 32.087 7.57354C31.9602 7.23856 31.8903 7.07329 31.6976 7.06432C31.493 7.08819 32.0593 7.34093 31.9559 7.72356C31.9186 7.78008 31.8797 7.35507 31.6227 7.37135C31.3503 7.38305 31.596 7.21924 31.5478 6.9445C31.4954 6.76291 31.9025 7.00863 32.4464 6.42779C32.642 6.19659 32.8269 6.48443 32.8059 6.03839C32.812 5.71616 32.9963 5.3583 33.1054 5.14726C32.8698 5.00258 32.4927 5.59402 32.1244 5.76881C31.8723 5.88001 31.9666 6.01429 32.2403 6.08164C32.3096 6.22368 31.9072 6.51485 31.5492 6.49145C31.1762 6.46707 30.8542 6.3955 30.8588 6.22561C30.8167 5.97193 31.3503 6.19425 31.3755 6.25556C31.5047 6.45635 31.6826 6.18489 31.3081 5.66397C30.9665 5.195 30.9758 5.45242 30.9337 5.2521C30.9524 5.09203 31.1326 4.92588 31.2333 4.7279C31.1537 4.61932 30.9782 4.68484 30.6492 5.03493C30.0585 5.63027 30.0632 6.05618 29.3611 6.40533C28.4056 6.06932 28.4297 6.14511 29.144 6.77976C28.6497 7.01097 28.5159 6.87629 28.3856 6.93176C28.2071 7.00771 28.3414 7.07469 28.8744 7.28897C28.0038 7.2091 27.6637 7.28086 27.6513 7.15918C27.6575 7.01252 27.7586 6.74699 27.7811 6.83966C27.8836 7.0815 28.2657 6.86236 27.9758 6.06835C27.8864 5.79754 27.76 5.75259 28.4326 5.35694C28.527 5.31992 28.5449 5.32699 28.5449 5.28205C28.4952 5.17961 28.2084 5.18702 27.9312 5.27193C27.6973 5.34359 27.5593 5.50076 27.3168 5.50671C26.8213 5.63027 26.1428 6.25496 25.9164 6.21812C25.8124 6.13062 25.6853 5.93639 25.5495 5.70141C25.5056 5.88135 25.4632 6.06909 25.3922 6.10579C25.2028 5.98427 24.9962 5.64802 24.8905 5.67894C24.6668 6.27147 25.0318 6.51017 24.9729 6.70487C24.9048 6.92792 25.3691 6.89067 24.9279 7.16916C24.3391 7.60537 23.9361 7.68759 24.0218 7.25154C24.0889 6.76138 24.1399 7.71576 24.3738 7.22907C24.4811 6.62874 24.0443 6.04214 24.4337 5.95602C24.9616 5.69891 23.8945 5.66147 23.4901 5.88862C23.1724 6.0268 23.0696 6.05088 22.6439 6.0384C22.9769 5.77291 23.5209 5.65716 24.1674 5.42958C24.4431 5.33252 24.735 5.08987 24.9429 5.04242C25.3017 4.93446 26.659 5.73636 26.6578 5.43182C26.6542 5.33033 26.5232 5.18997 26.4664 5.02705C26.4048 4.85018 26.4664 4.71994 26.3433 4.55566C26.1989 4.37793 26.4409 4.59663 26.7327 4.27859C27.2389 3.71719 26.8713 4.67109 27.2569 4.17375C27.3651 3.90256 27.3098 3.70771 27.3636 3.48968C27.4099 3.30236 27.6373 3.24271 27.7062 3.08791C27.2607 2.87365 26.9551 3.39928 26.523 3.72444C26.364 3.83137 26.5156 3.8306 26.537 3.87937C26.5649 3.94299 26.6017 4.00327 26.1411 4.01649C25.6886 3.98903 25.5857 4.0452 25.542 3.7469C25.5684 3.53183 25.6387 3.50852 25.6886 3.66453C25.7141 3.74419 25.6699 3.86111 25.8116 3.67951C25.9786 3.46243 25.8272 3.26111 25.9314 3.30508C26.0419 3.40912 25.9537 3.62463 26.0737 3.60462C26.3007 3.2964 26.3211 2.94136 26.0437 2.45139C25.9005 2.26588 26.4894 2.04048 26.2983 1.92719C25.8475 1.76271 25.3142 2.58493 24.7407 2.9681C24.6238 2.95669 24.5909 2.79755 24.4487 2.84828C24.0942 3.30883 24.3532 3.92351 23.3499 3.71755C23.2315 3.72583 23.7751 4.06846 23.3703 4.16626C23.2533 4.16533 22.9647 4.40402 23.0783 4.36096C23.1342 4.34057 23.2034 4.33277 23.4046 4.44303C23.5157 4.50388 23.6883 4.52592 23.6867 4.55868C23.6852 4.59163 23.6324 4.61822 23.58 4.6605C22.0973 4.96566 21.7603 5.96725 21.281 6.09081C21.0995 6.07874 21.2938 5.97512 21.0713 5.91109C20.808 5.8456 21.1383 6.15322 20.9216 6.24058C20.5857 6.2584 20.141 5.88122 19.9031 5.46178C20.0226 5.04684 20.099 5.3921 20.4273 5.43931C20.6235 5.46181 20.67 5.6942 20.8467 5.73885C21.1878 5.68092 21.1712 5.007 21.0788 4.74288C20.9853 4.55884 20.8924 4.75138 20.8691 4.57064C20.8691 4.47329 20.9066 4.45831 21.0414 4.48827C21.2974 4.53892 21.3671 4.36629 21.5581 4.30854C21.5955 4.30854 21.618 4.36845 21.618 4.43585C21.618 4.50137 21.6238 4.52594 21.6593 4.50225C22.0045 4.13059 22.6319 4.16379 22.6046 3.88919C22.5342 3.83735 21.4835 3.67533 21.266 3.7469C20.9352 3.84697 21.5896 3.96348 21.2885 4.05393C20.9101 4.104 20.7192 4.02735 20.8036 3.63645C20.8123 3.60065 20.8279 3.55214 20.8617 3.52225C20.9066 3.49978 20.9365 3.52225 20.9365 3.57467C20.9365 3.64206 20.9815 3.62708 21.0638 3.54471C21.3297 3.1497 21.0325 2.65592 21.4083 2.52628C21.6564 2.40482 21.675 2.33252 21.4607 2.26418C20.8117 2.20271 20.7228 2.56621 20.5097 2.58618C20.3063 2.60034 19.9605 2.79049 19.6418 3.08182C19.6042 3.10128 19.5961 3.07617 19.5961 3.01303C19.5385 2.56983 18.7805 3.52724 18.4354 3.18526C18.3207 3.06076 18.2602 3.10423 18.2535 3.19767C18.2465 3.29596 18.3097 3.45743 18.2332 3.43988C18.1142 3.35421 17.7799 3.73139 18.031 3.687C18.3787 3.65985 18.4911 3.72538 17.8363 4.03147C17.1408 4.3853 16.7806 4.36723 16.8403 4.48078C16.9185 4.56786 17.0871 4.56161 17.2952 4.6006C17.4202 4.62399 17.4918 4.78781 17.694 4.69795C17.8586 4.62617 18.0751 4.6473 18.3081 4.69795C18.266 5.05005 18.2462 5.56722 18.3081 5.61155C18.4389 5.67013 18.3319 5.51444 18.4503 5.49922C18.5466 5.52362 18.6488 5.85085 18.5327 5.99346C18.3889 6.13722 18.6461 6.1261 18.7274 6.02342C18.8505 5.84679 18.9119 6.02495 18.9895 6.17319C19.1403 6.51687 19.2026 6.31429 19.3115 6.49519C19.4443 6.66721 19.7929 6.82266 20.1577 6.93701C20.285 6.95948 20.2775 6.97446 20.0978 7.06432C19.7658 7.2477 19.9708 7.34929 19.7908 7.46121C19.041 8.26529 19.2423 9.53078 20.0847 10.1889C20.8502 10.787 20.9755 10.597 21.7004 10.7861C22.3594 11.0126 23.7341 11.049 23.9769 11.3178C24.3046 11.7532 24.1177 12.5295 23.6923 12.7182C21.8601 13.0127 19.5636 11.9394 18.8547 9.57298C18.7156 9.37108 18.9569 9.17117 18.8664 8.69026C18.6467 8.17851 18.5915 8.7162 18.3605 9.01134C17.4995 8.46444 16.8042 8.12483 16.8029 7.97043C16.8331 7.76921 17.0702 8.27862 17.3046 8.13518C17.6782 7.79976 17.5085 7.23997 16.7205 6.36789C14.711 4.35629 9.32933 0.881296 6.611 0.107483C6.46123 0.107483 6.39383 0.137434 6.40881 0.197346C7.05532 0.775353 7.83566 0.911915 8.5655 1.88226C8.50151 2.03111 8.07301 2.1018 8.0413 2.21925C8.09641 2.30656 8.26893 2.27701 8.34768 2.29995C9.02875 2.49832 9.48169 3.09343 9.30687 3.29759C9.09021 3.49387 8.61774 3.27713 8.55801 3.56718C8.59582 3.67653 8.74195 3.56937 9.217 3.8143C10.3006 4.45249 10.4258 5.2129 9.0223 4.66799C7.37295 4.10448 5.66931 3.68325 4.90361 4.0764C4.20601 4.39221 5.50012 4.22021 6.19913 4.58562C6.51409 4.79679 6.51602 4.8277 6.2815 4.96005C5.59585 5.12467 4.48987 5.05927 3.72042 5.20717C3.31235 5.32704 3.06075 5.19304 2.80683 5.57411C2.80456 5.82871 3.7049 5.53483 4.28956 5.66397C4.60177 5.7666 4.27931 6.04511 3.83276 6.1657C2.38331 6.57121 1.01374 6.81034 0.717533 7.12423C0.334587 7.44025 0.0762185 7.44391 0.0211013 7.6035C-0.0112496 7.68534 -0.181094 7.66621 1.41022 7.30115C2.05796 7.15255 3.59908 7.11282 3.72792 7.19912C3.71552 7.29386 3.44368 7.38386 3.42838 7.55108C3.42838 7.61485 3.45101 7.63337 3.57391 7.60662C4.77646 7.24334 6.68963 7.36511 7.38855 7.62721C7.60683 7.70906 7.62655 7.98705 7.61446 8.15016C7.67283 8.73063 6.76721 9.05882 6.81319 9.41572C6.87636 9.64951 6.94825 9.38821 7.66688 9.236C8.20605 9.12179 9.48846 9.4541 9.96586 9.99234C11.2571 11.4228 10.1348 11.6179 9.76367 12.0966C9.71244 12.1962 9.68976 12.3094 9.77458 12.4191C9.88245 12.4796 10.1156 12.1032 10.9244 12.0816C11.4963 12.1593 12.8045 12.9129 12.9313 13.13C10.2019 14.4989 7.78431 15.4836 6.77486 15.3136C5.5488 14.7781 3.44559 14.1453 2.55915 13.2442C2.53973 13.1313 3.50076 13.3871 3.96007 13.8414C3.81795 12.6047 2.38217 12.7261 1.90182 11.8182C1.67045 11.3809 1.73784 10.3293 1.59369 9.63289C1.54736 9.55964 1.48968 9.51156 1.4648 9.54439C1.28853 9.77704 1.03579 11.3215 1.02457 12.0517C1.00794 12.7543 1.36341 13.6992 1.69853 14.5603C1.82187 14.4651 1.94878 13.9962 1.92319 13.5119C3.51324 15.2905 4.43683 15.2593 4.92111 15.7313C2.25347 16.5864 1.48241 17.8782 1.37653 19.4204C1.00459 21.0878 2.93913 23.1971 6.61849 22.311C7.13084 22.1345 7.38861 23.1079 8.19712 23.0898C8.31244 23.0914 8.49237 22.7532 8.49812 23.1422C8.47685 23.4062 8.78706 23.3659 8.80514 23.1946C8.83316 22.8155 8.71166 22.735 8.99236 22.7827C9.39173 22.8695 9.32309 22.3297 9.47162 22.7902C9.55315 23.0404 9.65625 23.0405 9.78614 22.7303C9.84306 22.4567 9.55564 22.1279 9.44915 21.5621C9.85638 21.8336 9.85962 21.8595 9.85354 21.6445C9.83481 21.403 9.55842 21.0653 8.98611 21.1783C8.73337 21.2282 8.62627 21.4084 8.28843 21.5247C8.19984 21.5269 8.21203 21.5963 8.19519 21.6142C8.11061 21.6689 7.93284 21.5898 7.90652 21.5321C8.03132 21.325 8.97363 20.9193 9.22324 19.2469C9.61059 19.1811 10.1452 19.2433 10.535 19.2182C11.0265 19.1865 11.1724 19.0279 11.4111 18.986C11.6468 19.0806 11.3291 19.4059 11.3812 19.5702C11.5259 19.5936 12.1235 19.3717 12.0977 18.7843C12.1375 18.5854 12.2499 18.6566 12.3247 18.694C12.6476 18.8535 13.422 18.7363 13.7384 19.2157C13.8763 19.3858 13.8037 19.4934 13.7101 19.5103C13.3989 19.5379 13.3591 19.9708 13.6802 20.0644C14.1384 20.2001 14.3466 20.144 14.4215 20.5062C14.4449 20.8133 14.9223 20.5137 14.9457 20.7159C14.9098 20.9421 15.0241 21.0036 15.043 21.1469C15.0561 21.2462 14.8708 21.1456 14.8634 21.6445C14.822 22.107 15.2642 22.2704 15.3576 22.281C15.4579 22.2849 15.529 22.1881 15.3726 22.1088C15.2733 22.0325 15.6454 22.1331 15.8818 21.8991C16.1932 21.496 16.8173 21.9872 17.6075 22.4488C17.8663 22.5581 17.9848 22.5543 18.5252 22.8951C19.1692 23.3547 19.261 22.3359 19.4164 23.1272C19.4586 23.3423 19.6011 23.247 19.6335 22.8426C19.6707 22.2445 19.4111 22.414 19.6111 22.0563C19.6614 21.9416 19.722 21.8616 19.7817 21.871C19.873 21.8853 20.0181 21.9892 20.0754 22.0938C20.247 22.4139 20.3375 21.9084 20.0978 21.5771C19.5089 20.9974 19.2906 21.2407 19.1618 21.0753C19.1149 20.9841 19.2853 20.9645 19.5062 21.0753C19.702 21.1659 19.684 21.0735 19.5137 20.8507C18.5683 20.144 18.1985 21.169 17.6566 21.0454C16.3368 20.4742 15.5449 19.7853 15.9951 18.1256C16.0977 17.8256 16.4065 18.2096 16.4808 18.2124C16.6391 18.1927 16.4956 17.6046 16.1888 17.4434C15.8394 17.2712 15.6337 16.8771 15.3201 16.7554C15.1986 16.7082 15.0019 16.7273 14.5488 16.6421C14.8381 16.3669 15.7414 15.9738 17.2843 16.1961C17.7144 16.2581 18.1112 17.1322 18.1508 17.7504C18.185 18.4179 18.3668 18.6707 18.4663 18.6444C18.8103 18.3154 18.4185 17.6213 19.3415 17.1064C20.2643 17.7752 20.9217 18.376 22.2545 18.4993C22.4118 18.5293 22.4268 18.5667 22.3893 18.8138C22.1499 19.9727 22.3358 19.3676 22.5765 19.6151C22.7479 19.8651 22.4218 20.9015 22.7563 20.626C22.8842 20.4858 22.9129 20.5517 23.0109 20.7833C23.1418 21.1532 23.0284 21.5107 23.2056 21.5247C23.3439 21.5216 23.376 21.9304 23.1981 21.8542C22.8825 21.8686 22.6437 22.18 22.7396 22.6104C22.7906 22.8391 22.936 22.9699 23.1532 23.2171C23.1174 22.9564 23.0625 22.6362 23.0968 22.594C23.1692 22.6043 23.2499 22.7432 23.4385 22.7839C23.6488 22.8294 23.9247 22.7544 24.1791 22.9325C24.4952 23.2392 24.6106 23.5653 25.0852 23.921C25.2567 24.0495 25.5528 24.296 25.7703 24.5149C26.0018 24.7575 26.3624 24.2792 26.5529 24.4377C26.666 24.5318 26.4802 24.7797 26.5017 24.8505C26.5259 24.9307 26.6118 24.9041 26.8001 24.6998C26.9808 24.4278 27.003 24.2754 26.8824 23.9959C26.815 23.8686 26.83 23.8611 27.0547 23.8985C27.3461 23.9402 27.4016 23.8879 27.5639 23.6214C27.6325 23.5089 27.8391 23.6008 27.8485 23.8236C27.8634 24.0988 27.935 24.0251 28.1031 23.8386C28.4219 23.4436 28.0288 22.9974 27.7137 22.94C27.3251 22.8376 27.6762 22.7022 27.0247 22.4682C26.4562 22.233 26.4531 22.5481 25.9164 22.5805C24.8487 22.2627 24.5537 21.4311 24.5909 19.4054C24.6273 18.93 24.8897 19.0263 24.8905 19.3305C24.9018 19.7991 25.2124 19.267 25.19 19.8922C25.1453 20.5245 25.5077 19.9678 25.6393 20.4688C25.7904 20.8617 25.8203 20.5886 26.0512 20.8133C26.2273 20.9903 26.2591 20.7877 26.3882 20.9256C26.45 21.1175 25.8485 20.7828 25.6393 21.5097C25.549 21.7844 25.8415 21.9459 26.0887 21.9815C26.333 21.9857 26.0779 21.8733 26.0662 21.7493C26.1153 21.6627 26.2698 21.8219 26.4706 21.6819C26.6395 21.527 26.9554 21.9225 27.2344 21.9815C27.2868 21.9815 27.3392 22.0339 27.3617 22.0863C27.9289 22.6323 28.6803 23.4036 29.0092 23.3144C29.3547 23.2905 29.439 23.1475 29.4884 23.3893C29.5487 23.7352 29.9308 23.4786 29.8554 23.1272C29.8024 22.7399 29.6298 22.4704 29.8704 22.5057C30.0304 22.4931 30.151 22.3426 30.3197 22.1013C30.3905 22.2861 30.4606 22.4521 30.5294 22.588C30.6294 22.5836 30.6673 22.4473 30.6941 22.1687C30.7286 21.8015 29.7818 21.0748 29.6008 21.0903C29.286 21.0753 29.1516 21.3762 28.7527 21.3187C28.307 21.2545 27.5676 20.603 27.5115 20.4238C26.8806 18.9879 26.1317 17.6025 26.3433 17.1589C26.5946 16.1038 26.9145 16.0925 26.9704 15.7615C27.0716 15.1625 26.831 14.921 27.1146 14.5828C28.097 13.896 28.6248 13.2935 28.822 12.6657C29.0112 12.9835 29.3161 13.8719 29.7791 14.6323C29.5594 14.6881 28.997 14.7259 29.005 14.8054C29.0109 14.8643 29.6497 14.9193 30.1325 14.8449C30.513 14.774 30.2686 14.9237 30.4844 14.9572C30.8192 14.981 30.3148 15.2717 30.0515 15.604C29.9727 15.7335 30.3378 15.7086 30.7615 15.3841C30.9721 15.2232 31.0975 15.1852 31.1502 15.2009C31.2032 15.2168 31.2492 15.2386 31.3082 15.0546C31.3327 14.5733 32.3097 15.1313 33.3347 15.7117C33.4507 15.7917 33.5126 15.9457 33.6221 15.9083C33.8121 15.2203 33.4939 14.7241 33.9067 14.6652C34.2779 14.5351 34.4636 14.2017 34.5282 14.3507C34.5557 14.4899 34.7675 14.3528 34.7753 14.0736C34.8006 13.7639 34.9323 13.6005 35 13.4071C34.9239 13.3252 34.3504 13.7623 34.1241 13.9724ZM22.3369 9.7527C21.676 9.62727 20.5434 9.43381 20.3899 8.71179C20.4233 8.49123 20.7985 8.07964 20.8766 8.13518C20.9463 8.22517 20.7553 8.57763 20.8017 8.70431C20.9248 8.70431 21.1237 8.51169 21.3259 8.41225C21.4022 8.45719 21.3063 8.76141 21.4757 8.78668C21.5356 8.78668 21.588 8.8391 21.588 8.89901C21.6287 9.05833 21.882 9.34879 22.3069 9.67782C22.4118 9.73772 22.4186 9.76292 22.3369 9.7527ZM5.26305 19.4503C5.41034 19.4435 5.75356 19.4435 5.48022 19.8397C5.33953 20.0835 5.3025 20.2488 5.54013 20.2067C5.7442 20.0956 5.56947 20.7758 5.46524 20.8582C4.92358 21.1128 2.86817 20.3235 2.85924 19.9221C2.9556 19.2332 4.4764 18.0005 5.58506 17.8403C5.64883 17.8196 5.82302 18.7039 5.38287 19.031C5.16781 19.2486 4.96743 19.5259 5.26305 19.4503Z" fill="#39C1D7"/>
</svg>
