<svg width="33" height="33" viewBox="0 0 33 33" fill="none" xmlns="http://www.w3.org/2000/svg">
<g clip-path="url(#clip0_19_423)">
<path d="M16.5269 32.7661C7.54099 32.7661 0.252441 25.4776 0.252441 16.4891C0.252506 7.50076 7.54099 0.214783 16.5269 0.214783C25.5154 0.214783 32.8013 7.50076 32.8013 16.4892C32.8013 25.4776 25.5154 32.7661 16.5269 32.7661ZM6.37033 14.5347C5.29384 14.5347 4.41843 15.4101 4.41843 16.4916C4.41843 17.5681 5.29384 18.4435 6.37033 18.4435C7.45185 18.4435 8.33241 17.5681 8.33241 16.4916C8.33241 15.4101 7.45192 14.5347 6.37033 14.5347ZM20.3365 23.4264C19.4076 23.9608 19.0845 25.1594 19.6189 26.0883C20.1635 27.0325 21.3595 27.3506 22.2884 26.8085C23.2275 26.2767 23.5507 25.0754 23.0036 24.1415C22.4641 23.1999 21.2705 22.8818 20.3365 23.4289V23.4264L20.3365 23.4264ZM10.6202 16.4916C10.6202 14.5601 11.5822 12.8475 13.0506 11.8142L11.6229 9.41946C9.90771 10.5622 8.6327 12.3104 8.10593 14.3566C8.72944 14.8655 9.11623 15.6289 9.11623 16.4916C9.11623 17.3493 8.72944 18.1178 8.10593 18.6217C8.6327 20.6678 9.91022 22.4135 11.6229 23.5536L13.0506 21.164C11.5822 20.1334 10.6202 18.4181 10.6202 16.4916ZM16.3309 10.7734C19.3212 10.7734 21.7693 13.0663 22.0238 15.9903L24.8129 15.9394C24.673 13.7916 23.7339 11.8447 22.2884 10.4349C21.5377 10.7097 20.675 10.6716 19.937 10.2364C19.1939 9.80882 18.7333 9.08869 18.6035 8.30481C17.8631 8.10161 17.0987 7.99889 16.3309 7.99943C14.9822 7.99943 13.7072 8.31499 12.567 8.8749L13.9286 11.3103C14.6564 10.9668 15.4784 10.7759 16.3309 10.7759V10.7734ZM16.3309 22.2049C15.4759 22.2049 14.6564 22.0115 13.9286 21.6705L12.567 24.1059C13.7046 24.6632 14.9821 24.9788 16.3309 24.9788C17.1224 24.9788 17.8808 24.8769 18.6035 24.6734C18.7307 23.8871 19.1939 23.1617 19.937 22.7368C20.6827 22.3118 21.5377 22.2659 22.2884 22.5509C23.7365 21.1207 24.6704 19.1867 24.8129 17.0363L22.0238 16.9955C21.7693 19.912 19.3212 22.2023 16.3309 22.2023V22.2049ZM20.3365 9.55694C21.2705 10.0964 22.464 9.77834 23.0036 8.83926C23.5507 7.90533 23.2275 6.70412 22.2935 6.16464C21.3621 5.6302 20.166 5.94828 19.624 6.88478C19.0819 7.81626 19.4051 9.01483 20.3365 9.55443V9.55694Z" fill="#E95420"/>
</g>
<defs>
<clipPath id="clip0_19_423">
<rect width="33" height="33" fill="white"/>
</clipPath>
</defs>
</svg>
