
        <svg xmlns="http://www.w3.org/2000/svg" xmlns:xlink="http://www.w3.org/1999/xlink" version="1.1" width="3162.372043769855" 
        height="668.48165022128" viewBox="0 0 3162.372043769855 668.48165022128">
			
			<g transform="scale(8.118602188492764) translate(10, 10)">
				<defs id="SvgjsDefs1036"></defs><g id="SvgjsG1037" featureKey="HdFLvg-0" transform="matrix(0.877669921351987,0,0,0.877669921351987,-38.931710655616016,-24.44238614074926)" fill="#2dd4bf"><path xmlns="http://www.w3.org/2000/svg" fill="#2dd4bf" d="M78.65 28.3c-22.38 7.45-31.57 33.02-18.94 53.17q7.16 11.43 21.93 15.59 1.73.49-.01.9c-12.01 2.85-22.87-1.01-30.19-10.59-10.21-13.33-8.96-31.67 1.05-44.62q8.25-10.67 21.99-14.29 2.25-.59 4.1-.61 1.5-.02.07.45"></path></g><g id="SvgjsG1038" featureKey="VomJeJ-0" transform="matrix(2.662531514496097,0,0,2.662531514496097,53.26625099313988,-8.058166955160734)" fill="#FFFFFF"><path d="M4.98 17.62 l1.74 -7.58 q0.56 -0.12 1.26 -0.12 q0.86 0 1.5 0.24 l0.1 0.14 q-2.04 7.44 -2.78 9.7 q-1.02 0.12 -2.15 0.12 t-1.61 -0.31 t-0.74 -1.19 l-2.4 -8.36 q0.98 -0.42 1.74 -0.42 t1.18 0.33 t0.62 1.13 l0.9 3.74 q0.1 0.38 0.44 2.42 q0.02 0.16 0.2 0.16 z M14.58 17.62 l1.74 -7.58 q0.56 -0.12 1.26 -0.12 q0.86 0 1.5 0.24 l0.1 0.14 q-2.04 7.44 -2.78 9.7 q-1.02 0.12 -2.15 0.12 t-1.61 -0.31 t-0.74 -1.19 l-2.4 -8.36 q0.98 -0.42 1.74 -0.42 t1.18 0.33 t0.62 1.13 l0.9 3.74 q0.1 0.38 0.44 2.42 q0.02 0.16 0.2 0.16 z M28.779999999999998 18.56 q-0.1 0.42 -0.38 0.9 t-0.58 0.7 q-1.4 -0.04 -2.16 -1.06 q-1.3 1.2 -2.82 1.2 q-0.78 0 -1.36 -0.25 t-0.98 -0.67 t-0.6 -0.97 t-0.2 -1.15 q0 -0.86 0.31 -1.51 t0.85 -1.08 t1.26 -0.65 t1.54 -0.22 q0.46 0 0.81 0.01 t0.61 0.03 l0 -0.38 q0 -1.26 -1.3 -1.26 q-0.84 0 -2.94 0.64 q-0.6 -0.7 -0.76 -2.18 q0.48 -0.18 1.07 -0.34 t1.21 -0.28 t1.22 -0.19 t1.08 -0.07 q0.7 0 1.35 0.2 t1.14 0.61 t0.78 1.06 t0.29 1.55 l0 4.06 q0 0.92 0.56 1.3 z M22.74 17.06 q0 0.94 1.08 0.94 q0.56 0 1.26 -0.58 l0 -1.6 q-0.4 -0.02 -0.67 -0.03 t-0.41 -0.01 q-1.26 0 -1.26 1.28 z M29.759999999999998 19.32 q0.02 -0.52 0.27 -1.14 t0.59 -0.98 q1.6 0.84 2.78 0.84 q0.56 0 0.86 -0.19 t0.3 -0.51 q0 -0.6 -0.92 -0.9 l-1.1 -0.42 q-2.5 -0.92 -2.5 -3 q0 -1.52 1.05 -2.41 t2.83 -0.89 q0.88 0 1.94 0.25 t1.74 0.59 q0.04 0.56 -0.22 1.23 t-0.64 0.95 q-1.68 -0.76 -2.8 -0.76 q-0.4 0 -0.61 0.18 t-0.21 0.46 q0 0.48 0.76 0.76 l1.24 0.44 q2.66 0.94 2.66 3.22 q0 1.5 -1.1 2.38 t-3.14 0.88 t-3.78 -0.98 z M48.06 10.34 l-2.46 9.4 q-0.58 2.16 -1.54 3.32 q-1.1 1.32 -3.38 1.32 q-1.22 0 -2.42 -0.4 q-0.06 -0.54 0.12 -1.21 t0.5 -1.03 q0.9 0.3 1.8 0.3 q1.48 0 1.96 -1.62 l0.08 -0.28 q-1.74 0 -2.08 -1.26 l-2.32 -8.62 q0.92 -0.42 1.72 -0.42 t1.17 0.3 t0.55 1.04 l0.92 3.84 q0.14 0.54 0.46 2.64 q0.02 0.14 0.16 0.14 l1.74 -7.76 q0.48 -0.14 1.3 -0.14 q0.92 0 1.6 0.22 z M53.26 17.72 l0.54 0 q0.24 0.66 0.24 1.32 t-0.06 0.86 q-1.2 0.2 -2.14 0.2 q-1.36 0 -1.93 -0.67 t-0.57 -2.11 l0 -11.9 l0.12 -0.14 l1.22 0 q0.94 0 1.32 0.42 t0.38 1.46 l0 9.62 q0 0.94 0.88 0.94 z M63.279999999999994 16.02 l0.5 1.46 q0.4 1.32 0.96 1.7 q-0.88 0.98 -2.1 0.98 q-0.66 0 -1 -0.31 t-0.6 -1.09 l-0.6 -1.72 q-0.2 -0.62 -0.46 -0.83 t-0.7 -0.21 t-0.62 0.02 l0 3.98 q-0.66 0.12 -1.52 0.12 t-1.52 -0.12 l0 -14.58 l0.14 -0.14 l1.2 0 q0.94 0 1.32 0.42 t0.38 1.46 l0 6.28 l0.32 0 q0.36 0 0.56 -0.36 l1.04 -2 q0.56 -1.14 1.76 -1.14 q0.58 0 1.74 0.04 l0.12 0.16 l-1.54 2.98 q-0.4 0.76 -1.02 1.18 q1.2 0.44 1.64 1.72 z M72.96000000000001 10.9 q1.44 1.44 1.44 4.12 q0 1.2 -0.31 2.18 t-0.9 1.67 t-1.45 1.06 t-1.98 0.37 t-1.97 -0.38 t-1.44 -1.07 t-0.89 -1.67 t-0.3 -2.16 q0 -1.2 0.3 -2.17 t0.88 -1.67 t1.44 -1.08 t1.98 -0.38 q1.98 0 3.2 1.18 z M69.78 12.059999999999999 q-0.44 0 -0.71 0.21 t-0.43 0.57 t-0.22 0.83 t-0.06 1.01 q0 0.84 0.05 1.45 t0.2 1.02 t0.42 0.61 t0.71 0.2 q0.88 0 1.16 -0.77 t0.28 -2.19 q0 -1.44 -0.28 -2.19 t-1.12 -0.75 z M79.86 17.62 l1.74 -7.58 q0.56 -0.12 1.26 -0.12 q0.86 0 1.5 0.24 l0.1 0.14 q-2.04 7.44 -2.78 9.7 q-1.02 0.12 -2.15 0.12 t-1.61 -0.31 t-0.74 -1.19 l-2.4 -8.36 q0.98 -0.42 1.74 -0.42 t1.18 0.33 t0.62 1.13 l0.9 3.74 q0.1 0.38 0.44 2.42 q0.02 0.16 0.2 0.16 z M84.88 19.32 q0.02 -0.52 0.27 -1.14 t0.59 -0.98 q1.6 0.84 2.78 0.84 q0.56 0 0.86 -0.19 t0.3 -0.51 q0 -0.6 -0.92 -0.9 l-1.1 -0.42 q-2.5 -0.92 -2.5 -3 q0 -1.52 1.05 -2.41 t2.83 -0.89 q0.88 0 1.94 0.25 t1.74 0.59 q0.04 0.56 -0.22 1.23 t-0.64 0.95 q-1.68 -0.76 -2.8 -0.76 q-0.4 0 -0.61 0.18 t-0.21 0.46 q0 0.48 0.76 0.76 l1.24 0.44 q2.66 0.94 2.66 3.22 q0 1.5 -1.1 2.38 t-3.14 0.88 t-3.78 -0.98 z M102.19999999999999 16.02 l0.5 1.46 q0.4 1.32 0.96 1.7 q-0.88 0.98 -2.1 0.98 q-0.66 0 -1 -0.31 t-0.6 -1.09 l-0.6 -1.72 q-0.2 -0.62 -0.46 -0.83 t-0.7 -0.21 t-0.62 0.02 l0 3.98 q-0.66 0.12 -1.52 0.12 t-1.52 -0.12 l0 -14.58 l0.14 -0.14 l1.2 0 q0.94 0 1.32 0.42 t0.38 1.46 l0 6.28 l0.32 0 q0.36 0 0.56 -0.36 l1.04 -2 q0.56 -1.14 1.76 -1.14 q0.58 0 1.74 0.04 l0.12 0.16 l-1.54 2.98 q-0.4 0.76 -1.02 1.18 q1.2 0.44 1.64 1.72 z M113.63999999999999 10.34 l-2.46 9.4 q-0.58 2.16 -1.54 3.32 q-1.1 1.32 -3.38 1.32 q-1.22 0 -2.42 -0.4 q-0.06 -0.54 0.12 -1.21 t0.5 -1.03 q0.9 0.3 1.8 0.3 q1.48 0 1.96 -1.62 l0.08 -0.28 q-1.74 0 -2.08 -1.26 l-2.32 -8.62 q0.92 -0.42 1.72 -0.42 t1.17 0.3 t0.55 1.04 l0.92 3.84 q0.14 0.54 0.46 2.64 q0.02 0.14 0.16 0.14 l1.74 -7.76 q0.48 -0.14 1.3 -0.14 q0.92 0 1.6 0.22 z M118.77999999999997 12.32 l0 7.68 q-0.34 0.06 -0.74 0.09 t-0.82 0.03 t-0.83 -0.03 t-0.75 -0.09 l0 -6.62 q0 -1.16 -0.94 -1.16 l-0.3 0 q-0.12 -0.38 -0.12 -1.06 q0 -0.66 0.12 -1.12 q0.52 -0.04 0.96 -0.07 t0.8 -0.03 l0.44 0 q1.02 0 1.6 0.64 t0.58 1.74 z M115.27999999999997 6 q0.58 -0.32 1.5 -0.32 q0.94 0 1.46 0.32 q0.24 0.54 0.24 1.16 t-0.24 1.16 q-0.58 0.3 -1.52 0.3 t-1.44 -0.3 q-0.24 -0.54 -0.24 -1.16 t0.24 -1.16 z"></path></g>
			</g>
		</svg>