<svg width="34" height="32" viewBox="0 0 34 32" fill="none" xmlns="http://www.w3.org/2000/svg">
<g filter="url(#filter0_dd_29_881)">
<path d="M29.9204 7.61225L23.9534 13.5793L18.3153 19.2275C17.9689 19.5728 17.4997 19.7667 17.0105 19.7667C16.5214 19.7667 16.0522 19.5728 15.7057 19.2275L4.09045 7.61225L6.69159 5.00263L9.30121 7.61225L9.55895 7.86999L12.1804 10.4915L17.0012 15.3122L21.822 10.4915L24.4434 7.87508L24.7029 7.61225L27.3108 5.00263L29.9204 7.61225Z" fill="url(#paint0_linear_29_881)"/>
<path d="M7.26303 10.7882C6.73708 11.7509 6.36085 12.7881 6.14729 13.8641C6.08964 14.1574 6.03877 14.4508 6.00824 14.7526L4.08198 12.8314C3.73898 12.4889 3.46687 12.0821 3.28122 11.6343C3.09556 11.1865 3 10.7065 3 10.2218C3 9.73706 3.09556 9.25707 3.28122 8.80929C3.46687 8.36151 3.73898 7.95472 4.08198 7.61218L7.26303 10.7882Z" fill="url(#paint1_linear_29_881)"/>
<path d="M26.736 10.7966C27.2619 11.7593 27.6381 12.7965 27.8517 13.8726C27.9094 14.1659 27.9602 14.4593 27.9907 14.7611L29.917 12.8348C30.2603 12.4921 30.5327 12.0851 30.7185 11.637C30.9043 11.1889 31 10.7086 31 10.2235C31 9.73841 30.9043 9.25809 30.7185 8.81001C30.5327 8.36193 30.2603 7.95489 29.917 7.61218L26.736 10.7966Z" fill="url(#paint2_linear_29_881)"/>
<path d="M24.4434 7.87501L21.822 10.4914C20.484 9.33094 18.7723 8.69206 17.0012 8.69206C15.2301 8.69206 13.5184 9.33094 12.1804 10.4914L9.55896 7.86993C11.5976 6.02293 14.2503 5 17.0012 5C19.7521 5 22.4048 6.02293 24.4434 7.86993V7.87501Z" fill="url(#paint3_linear_29_881)"/>
<path d="M28.0756 16.077C28.0756 19.0141 26.9088 21.8309 24.832 23.9077C22.7551 25.9845 19.9383 27.1513 17.0012 27.1513C14.0641 27.1513 11.2473 25.9845 9.17048 23.9077C7.09364 21.8309 5.92688 19.0141 5.92688 16.077C5.92649 15.636 5.95367 15.1954 6.00827 14.7577C6.0388 14.4559 6.08967 14.1626 6.14732 13.8692C6.36038 12.7914 6.73662 11.7525 7.26306 10.7882L10.0541 13.5793C9.76608 14.3788 9.61808 15.222 9.61664 16.0719C9.61421 17.059 9.81267 18.0363 10.1999 18.9443C10.6682 20.0562 11.4023 21.0361 12.3377 21.798C13.2732 22.5599 14.3814 23.0805 15.565 23.314C15.9852 23.3969 16.4119 23.4418 16.8401 23.448C16.8927 23.448 16.947 23.448 17.0012 23.448C17.0555 23.448 17.1131 23.448 17.1708 23.448C18.1038 23.4335 19.0251 23.2383 19.8838 22.8732C21.6532 22.1235 23.0611 20.7143 23.8093 18.9443C24.1966 18.0363 24.395 17.059 24.3926 16.0719C24.3907 15.2208 24.2445 14.3763 23.9602 13.5742L26.7428 10.7916C27.2693 11.7529 27.6455 12.789 27.8585 13.8641C27.9226 14.1585 27.9702 14.4563 28.001 14.756C28.0536 15.1943 28.0785 15.6355 28.0756 16.077V16.077Z" fill="url(#paint4_linear_29_881)"/>
</g>
<defs>
<filter id="filter0_dd_29_881" x="-2" y="-2" width="38" height="38" filterUnits="userSpaceOnUse" color-interpolation-filters="sRGB">
<feFlood flood-opacity="0" result="BackgroundImageFix"/>
<feColorMatrix in="SourceAlpha" type="matrix" values="0 0 0 0 0 0 0 0 0 0 0 0 0 0 0 0 0 0 127 0" result="hardAlpha"/>
<feOffset dy="1"/>
<feGaussianBlur stdDeviation="1"/>
<feColorMatrix type="matrix" values="0 0 0 0 0.0627451 0 0 0 0 0.0941176 0 0 0 0 0.156863 0 0 0 0.06 0"/>
<feBlend mode="normal" in2="BackgroundImageFix" result="effect1_dropShadow_29_881"/>
<feColorMatrix in="SourceAlpha" type="matrix" values="0 0 0 0 0 0 0 0 0 0 0 0 0 0 0 0 0 0 127 0" result="hardAlpha"/>
<feOffset dy="1"/>
<feGaussianBlur stdDeviation="1.5"/>
<feColorMatrix type="matrix" values="0 0 0 0 0.0627451 0 0 0 0 0.0941176 0 0 0 0 0.156863 0 0 0 0.1 0"/>
<feBlend mode="normal" in2="effect1_dropShadow_29_881" result="effect2_dropShadow_29_881"/>
<feBlend mode="normal" in="SourceGraphic" in2="effect2_dropShadow_29_881" result="shape"/>
</filter>
<linearGradient id="paint0_linear_29_881" x1="17.0012" y1="4.47359" x2="17.0012" y2="20.3246" gradientUnits="userSpaceOnUse">
<stop offset="0.34" stop-color="#FFFFFF"/>
<stop offset="0.49" stop-color="#FFFFFF"/>
<stop offset="0.76" stop-color="#FFFFFF"/>
<stop offset="0.9" stop-color="#FFFFFF"/>
</linearGradient>
<linearGradient id="paint1_linear_29_881" x1="5.27572" y1="14.6475" x2="5.07224" y2="8.85849" gradientUnits="userSpaceOnUse">
<stop offset="0.1" stop-color="#FFFFFF" stop-opacity="0"/>
<stop offset="0.66" stop-color="#FFFFFF"/>
</linearGradient>
<linearGradient id="paint2_linear_29_881" x1="28.725" y1="14.6509" x2="28.9284" y2="8.85849" gradientUnits="userSpaceOnUse">
<stop offset="0.1" stop-color="#FFFFFF" stop-opacity="0"/>
<stop offset="0.66" stop-color="#FFFFFF"/>
</linearGradient>
<linearGradient id="paint3_linear_29_881" x1="17.0012" y1="1.7486" x2="17.0012" y2="32.4875" gradientUnits="userSpaceOnUse">
<stop stop-color="#FFFFFF"/>
<stop offset="1" stop-color="#FFFFFF"/>
</linearGradient>
<linearGradient id="paint4_linear_29_881" x1="17.0012" y1="1.74865" x2="17.0012" y2="32.4875" gradientUnits="userSpaceOnUse">
<stop stop-color="#FFFFFF"/>
<stop offset="1" stop-color="#FFFFFF"/>
</linearGradient>
</defs>
</svg>
