<svg id="Layer_1" data-name="Layer 1" xmlns="http://www.w3.org/2000/svg" xmlns:xlink="http://www.w3.org/1999/xlink" viewBox="0 0 759.76 294.36">
<defs>
<style>.cls-1{fill:url(#linear-gradient);}.cls-2{fill:url(#linear-gradient-2);}.cls-3{fill:url(#linear-gradient-3);}.cls-4{fill:url(#linear-gradient-4);}.cls-5{fill:url(#linear-gradient-5);}.cls-6{fill:#fff;}</style>
<linearGradient id="linear-gradient" x1="157.25" y1="78.76" x2="157.25" y2="172.24" gradientUnits="userSpaceOnUse"><stop offset="0.34" stop-color="#6ddeb4"/><stop offset="0.49" stop-color="#5ccecc"/><stop offset="0.76" stop-color="#41b5f1"/><stop offset="0.9" stop-color="#37abff"/></linearGradient><linearGradient id="linear-gradient-2" x1="88.1" y1="138.76" x2="86.9" y2="104.62" gradientUnits="userSpaceOnUse"><stop offset="0.1" stop-color="#6ddeb4" stop-opacity="0"/><stop offset="0.66" stop-color="#6ddeb4"/></linearGradient><linearGradient id="linear-gradient-3" x1="282.31" y1="138.78" x2="281.11" y2="104.62" gradientTransform="matrix(-1, 0, 0, 1, 508.7, 0)" xlink:href="#linear-gradient-2"/><linearGradient id="linear-gradient-4" x1="157.25" y1="62.69" x2="157.25" y2="243.97" gradientUnits="userSpaceOnUse"><stop offset="0" stop-color="#49039c"/><stop offset="1" stop-color="#478de4"/></linearGradient><linearGradient id="linear-gradient-5" x1="157.25" y1="62.69" x2="157.25" y2="243.97" xlink:href="#linear-gradient-4"/></defs>
<path class="cls-1" d="M233.44,97.27l-35.19,35.19L165,165.77a10.9,10.9,0,0,1-15.39,0l-68.5-68.5L96.45,81.88l15.39,15.39,1.52,1.52,15.46,15.46,28.43,28.43,28.43-28.43,15.46-15.43,1.53-1.55,15.38-15.39Z"/>
<path class="cls-2" d="M99.82,116a63.7,63.7,0,0,0-6.58,18.14c-.34,1.73-.64,3.46-.82,5.24L81.06,128.05a21.75,21.75,0,0,1,0-30.78Z"/>
<path class="cls-3" d="M214.66,116.05a63.7,63.7,0,0,1,6.58,18.14c.34,1.73.64,3.46.82,5.24l11.36-11.36a21.76,21.76,0,0,0,0-30.8Z"/>
</svg>