<svg width="33" height="33" viewBox="0 0 33 33" fill="none" xmlns="http://www.w3.org/2000/svg">
<g clip-path="url(#clip0_19_420)">
<path d="M29.7 12.375H29.002L28.2562 10.5765L28.7512 10.0815C29.2152 9.61738 29.4758 8.98797 29.4758 8.33169C29.4758 7.67541 29.2152 7.04599 28.7512 6.58186L26.4165 4.24876C25.9523 3.78477 25.3229 3.52412 24.6666 3.52412C24.0103 3.52412 23.3809 3.78477 22.9168 4.24876L22.4218 4.74376L20.625 3.99796V3.30001C20.625 2.6436 20.3642 2.01408 19.9 1.54992C19.4359 1.08577 18.8064 0.825012 18.15 0.825012H14.85C14.1935 0.825012 13.564 1.08577 13.0999 1.54992C12.6357 2.01408 12.375 2.6436 12.375 3.30001V3.99796L10.5765 4.74376L10.0815 4.24876C9.61732 3.78477 8.98791 3.52412 8.33163 3.52412C7.67534 3.52412 7.04593 3.78477 6.5818 4.24876L4.25035 6.58351C3.78636 7.04764 3.5257 7.67706 3.5257 8.33334C3.5257 8.98962 3.78636 9.61903 4.25035 10.0832L4.74535 10.5782L3.9979 12.375H3.29995C2.64354 12.375 2.01401 12.6358 1.54986 13.0999C1.08571 13.5641 0.824951 14.1936 0.824951 14.85V18.15C0.824951 18.8064 1.08571 19.4359 1.54986 19.9001C2.01401 20.3643 2.64354 20.625 3.29995 20.625H3.9979L4.7437 22.4235L4.2487 22.9185C3.78471 23.3826 3.52405 24.0121 3.52405 24.6683C3.52405 25.3246 3.78471 25.954 4.2487 26.4182L6.58345 28.7496C7.04758 29.2136 7.67699 29.4743 8.33328 29.4743C8.98956 29.4743 9.61897 29.2136 10.0831 28.7496L10.5781 28.2546L12.3766 29.0004V29.7C12.3766 30.3561 12.6371 30.9854 13.1009 31.4495C13.5647 31.9136 14.1938 32.1746 14.85 32.175H18.15C18.8064 32.175 19.4359 31.9143 19.9 31.4501C20.3642 30.9859 20.625 30.3564 20.625 29.7V29.0021L22.4235 28.2563L22.9185 28.7513C23.3826 29.2153 24.012 29.4759 24.6683 29.4759C25.3246 29.4759 25.954 29.2153 26.4181 28.7513L28.7529 26.4182C29.2168 25.954 29.4775 25.3246 29.4775 24.6683C29.4775 24.0121 29.2168 23.3826 28.7529 22.9185L28.2579 22.4235L29.0036 20.625H29.7C30.3564 20.625 30.9859 20.3643 31.45 19.9001C31.9142 19.4359 32.175 18.8064 32.175 18.15V14.85C32.175 14.1936 31.9142 13.5641 31.45 13.0999C30.9859 12.6358 30.3564 12.375 29.7 12.375ZM16.5 22.275C15.7416 22.275 14.9906 22.1256 14.29 21.8354C13.5893 21.5452 12.9527 21.1198 12.4164 20.5836C11.8802 20.0473 11.4548 19.4107 11.1645 18.71C10.8743 18.0094 10.725 17.2584 10.725 16.5C10.725 15.7416 10.8743 14.9907 11.1645 14.29C11.4548 13.5894 11.8802 12.9527 12.4164 12.4165C12.9527 11.8802 13.5893 11.4548 14.29 11.1646C14.9906 10.8744 15.7416 10.725 16.5 10.725C18.0316 10.725 19.5005 11.3334 20.5835 12.4165C21.6665 13.4995 22.275 14.9684 22.275 16.5C22.275 18.0316 21.6665 19.5005 20.5835 20.5836C19.5005 21.6666 18.0316 22.275 16.5 22.275Z" fill="#0F9D58"/>
</g>
<defs>
<clipPath id="clip0_19_420">
<rect width="33" height="33" fill="white"/>
</clipPath>
</defs>
</svg>
