<svg width="52" height="24" viewBox="0 0 52 24" fill="none" xmlns="http://www.w3.org/2000/svg">
<path d="M20.217 0C9.04743 0 0 5.36727 0 12C0 18.6218 9.04743 24 20.217 24C27.4762 24 33.8322 21.5999 37.3994 18.1854C34.1442 20.2254 29.266 21.3814 23.8164 21.3814C14.0092 21.3814 6.06328 17.1818 6.06328 12C6.06328 10.431 6.80244 8.95517 8.09047 7.65554L10.4934 17.2479H12.1469L14.4747 8.5696L16.7761 17.2479H18.4336L21.2977 6.20028H19.433L17.5683 14.6761L15.3156 6.20028H13.6053L11.3587 14.6761L9.54078 6.43892C12.7734 4.12536 17.9548 2.61861 23.8164 2.61861C29.2868 2.61861 34.1848 3.79568 37.44 5.84659C33.8832 2.41023 27.5074 0 20.217 0ZM39.6134 6.78622C38.8719 6.78622 38.2074 6.92466 37.6167 7.19957C37.026 7.47557 36.5273 7.85513 36.1217 8.33949C35.7161 8.82385 35.4057 9.39172 35.1894 10.0419C34.9731 10.6932 34.8644 11.4005 34.8644 12.1598C34.8644 12.9005 34.9751 13.5915 35.1914 14.233C35.4077 14.8744 35.7171 15.4331 36.1237 15.9077C36.5304 16.3833 37.029 16.7557 37.6208 17.0263C38.2125 17.2968 38.8791 17.4332 39.6195 17.4332C40.0886 17.4332 40.5522 17.3304 41.013 17.1264C41.4737 16.9224 41.8937 16.5653 42.2744 16.0526L42.4917 17.2031H43.8405V11.7124H39.7841V13.3828H41.923C41.8595 14.0919 41.6354 14.6354 41.2506 15.0085C40.8658 15.3827 40.3226 15.5689 39.6175 15.5689C39.1381 15.5689 38.7306 15.4723 38.3967 15.277C38.0629 15.0817 37.7922 14.8222 37.5842 14.4993C37.3762 14.1764 37.2239 13.8141 37.1292 13.4105C37.0346 13.0069 36.987 12.5896 36.987 12.1619C36.987 11.7157 37.0346 11.2843 37.1292 10.8665C37.2239 10.4476 37.3742 10.0762 37.5822 9.74787C37.7891 9.4206 38.0608 9.15905 38.3947 8.96378C38.7285 8.76851 39.135 8.67188 39.6134 8.67188C40.1272 8.67188 40.5657 8.81328 40.9277 9.09801C41.2885 9.38274 41.532 9.81019 41.6589 10.3786H43.6902C43.6361 9.80037 43.4846 9.28638 43.2412 8.8402C42.9979 8.39402 42.6894 8.01956 42.315 7.7152C41.9406 7.41084 41.5205 7.17982 41.0556 7.02273C40.5907 6.86564 40.1095 6.78622 39.6134 6.78622ZM45.1669 7.0419V17.1967H52V15.3111H47.2875V7.0419H45.1669ZM27.5559 7.2081V17.2479H28.858V16.5661C28.9724 16.7231 29.1185 16.8886 29.313 17.0348C29.6842 17.3141 30.1414 17.4545 30.6739 17.4545C31.2459 17.4545 31.7555 17.3201 32.1892 17.0561C32.5761 16.8205 32.9053 16.4825 33.1642 16.0483C33.3909 15.6697 33.5627 15.2216 33.6761 14.7209C33.7739 14.2878 33.8244 13.8145 33.8244 13.3509C33.8233 12.8381 33.7574 12.3556 33.6253 11.9126C33.4922 11.4665 33.2951 11.0724 33.0423 10.7429C32.7803 10.4025 32.4638 10.1389 32.0998 9.95668C31.7192 9.76686 31.2931 9.66903 30.8323 9.66903H30.8303C30.405 9.67667 30.0166 9.77444 29.6766 9.95881C29.3958 10.1115 29.1434 10.3253 28.925 10.598V7.2081H27.5559ZM23.6458 9.6669C23.08 9.6669 22.5704 9.77378 22.1305 9.98651C21.7134 10.1883 21.3592 10.4857 21.0742 10.8686C20.5469 11.5777 20.2678 12.5774 20.2678 13.7578C20.2678 14.2836 20.3387 14.7754 20.4791 15.2216C20.6195 15.671 20.8272 16.0672 21.0966 16.3956C21.6623 17.0861 22.4685 17.4503 23.4284 17.4503C23.9328 17.4503 24.3457 17.3954 24.6878 17.282C24.9873 17.1827 25.1847 17.0545 25.348 16.9411C25.558 16.796 25.7523 16.6178 25.9228 16.4105C26.0674 16.2349 26.1965 16.0383 26.3067 15.8267C26.5033 15.4482 26.5977 15.0939 26.6195 14.9062L26.6337 14.7827H25.2586L25.2525 14.8849C25.2182 15.354 24.632 16.1911 23.5889 16.1911C22.0965 16.1911 21.741 15.0586 21.7181 14.0604H26.713V13.9474C26.713 13.3038 26.6499 12.7173 26.5261 12.2024C26.3982 11.6744 26.206 11.2193 25.9553 10.8494C25.6964 10.4665 25.3731 10.1723 24.9925 9.97372C24.6015 9.76972 24.1481 9.6669 23.6458 9.6669ZM23.4894 10.9688C24.5959 10.9688 25.187 11.5938 25.2952 12.88H21.7181C21.7701 11.8338 22.5607 10.9688 23.4894 10.9688ZM30.6211 10.973C31.3626 10.973 31.8577 11.2768 32.1364 11.9041C32.3652 12.4234 32.3964 13.0528 32.3964 13.5426C32.3964 14.3313 32.2457 14.9903 31.9597 15.4517C31.656 15.9437 31.2133 16.1932 30.6475 16.1932C29.829 16.1932 28.8722 15.5916 28.8722 13.8963C28.8722 13.0847 28.9681 12.4607 29.1647 11.9872C29.4486 11.3043 29.9243 10.973 30.6211 10.973Z" fill="#A771FF"/>
</svg>
