<svg width="34" height="34" viewBox="0 0 34 34" fill="none" xmlns="http://www.w3.org/2000/svg">
<path d="M17 2.83331L4.95837 9.91665V24.0833L17 31.1666L29.0417 24.0833V9.91665L17 2.83331Z" fill="#ECEFF1"/>
<path d="M16.6458 17.3542V23.7292L10.625 20.5417V13.8125L16.6458 17.3542Z" fill="#0277BD"/>
<path d="M17.3541 17.3542V23.7292L23.375 20.5417V13.8125L17.3541 17.3542Z" fill="#0277BD"/>
<path d="M17 16.6459L10.9791 13.1042L17 9.91669L23.0208 13.1042L17 16.6459Z" fill="#0277BD"/>
<path d="M16.6458 4.95831V9.20831L10.2708 12.75L6.72913 10.625L16.6458 4.95831Z" fill="#81D4FA"/>
<path d="M16.6458 29.0417V24.7917L10.2708 21.25L6.72913 23.375L16.6458 29.0417Z" fill="#81D4FA"/>
<path d="M9.91667 13.4583L6.375 11.3333V22.6666L9.91667 20.5416V13.4583Z" fill="#81D4FA"/>
<path d="M17.3541 4.95831V9.20831L23.7291 12.75L27.2708 10.625L17.3541 4.95831Z" fill="#81D4FA"/>
<path d="M17.3541 29.0417V24.7917L23.7291 21.25L27.2708 23.375L17.3541 29.0417Z" fill="#81D4FA"/>
<path d="M24.0834 13.4583L27.625 11.3333V22.6666L24.0834 20.5416V13.4583Z" fill="#81D4FA"/>
</svg>
