<svg width="41" height="33" viewBox="0 0 41 33" fill="none" xmlns="http://www.w3.org/2000/svg">
<path d="M25.1641 0.0808153C24.075 -0.234938 22.941 0.403013 22.627 1.49848L14.4264 30.3674C14.1125 31.4629 14.7467 32.6034 15.8359 32.9192C16.925 33.2349 18.059 32.597 18.373 31.5015L26.5736 2.63262C26.8875 1.53715 26.2533 0.396569 25.1641 0.0808153ZM30.328 7.82C29.5271 8.62549 29.5271 9.93362 30.328 10.7391L36.0492 16.5L30.3216 22.2609C29.5207 23.0664 29.5207 24.3745 30.3216 25.18C31.1224 25.9855 32.423 25.9855 33.2238 25.18L40.3994 17.9628C41.2002 17.1573 41.2002 15.8492 40.3994 15.0437L33.2238 7.82644C32.423 7.02095 31.1224 7.02095 30.3216 7.82644L30.328 7.82ZM10.6785 7.82C9.87761 7.01451 8.57704 7.01451 7.77619 7.82L0.600633 15.0372C-0.200211 15.8427 -0.200211 17.1508 0.600633 17.9563L7.77619 25.1736C8.57704 25.9791 9.87761 25.9791 10.6785 25.1736C11.4793 24.3681 11.4793 23.0599 10.6785 22.2544L4.95082 16.5L10.6785 10.7391C11.4793 9.93362 11.4793 8.62549 10.6785 7.82Z" fill="#00C990"/>
</svg>
