<svg width="28" height="25" viewBox="0 0 28 25" fill="none" xmlns="http://www.w3.org/2000/svg">
<path d="M12.1333 23.0225C12.6583 23.208 13.2222 22.8223 13.2222 22.2656V3.83789C13.2222 3.63281 13.1444 3.42773 12.9792 3.30078C12.0264 2.53906 9.83889 1.5625 7 1.5625C4.54514 1.5625 2.25069 2.21191 0.879861 2.73926C0.330556 2.9541 0 3.50098 0 4.0918V22.1729C0 22.7539 0.622222 23.1592 1.17153 22.9785C2.70278 22.4658 5.12847 21.875 7 21.875C8.64792 21.875 10.8403 22.5586 12.1333 23.0225ZM15.8667 23.0225C17.1597 22.5586 19.3521 21.875 21 21.875C22.8715 21.875 25.2972 22.4658 26.8285 22.9785C27.3778 23.1641 28 22.7539 28 22.1729V4.0918C28 3.50098 27.6694 2.9541 27.1201 2.74414C25.7493 2.21191 23.4549 1.5625 21 1.5625C18.1611 1.5625 15.9736 2.53906 15.0208 3.30078C14.8604 3.42773 14.7778 3.63281 14.7778 3.83789V22.2656C14.7778 22.8223 15.3465 23.208 15.8667 23.0225Z" fill="#F4B400"/>
</svg>
