<svg width="25" height="28" viewBox="0 0 25 28" fill="none" xmlns="http://www.w3.org/2000/svg">
<path d="M0 1.71978V26.2802C0.00544014 26.5859 0.0924544 26.8848 0.252381 27.1473C0.412308 27.4097 0.639569 27.6265 0.911542 27.7761C1.18352 27.9257 1.49071 28.0029 1.80256 27.9999C2.1144 27.997 2.42002 27.914 2.68898 27.7592L24.1258 15.479C24.3915 15.3297 24.6122 15.1144 24.7657 14.8547C24.9192 14.595 25 14.3001 25 14C25 13.6999 24.9192 13.405 24.7657 13.1453C24.6122 12.8856 24.3915 12.6703 24.1258 12.521L2.68898 0.240766C2.42002 0.0860291 2.1144 0.0030478 1.80256 8.23676e-05C1.49071 -0.00288306 1.18352 0.0742709 0.911542 0.223864C0.639569 0.373457 0.412308 0.590272 0.252381 0.852725C0.0924544 1.11518 0.00544014 1.41412 0 1.71978Z" fill="#41BC08"/>
</svg>
