<svg width="35" height="35" viewBox="0 0 35 35" fill="none" xmlns="http://www.w3.org/2000/svg">
<path d="M17.5 19.95C18.8531 19.95 19.95 18.8531 19.95 17.5C19.95 16.1469 18.8531 15.05 17.5 15.05C16.147 15.05 15.05 16.1469 15.05 17.5C15.05 18.8531 16.147 19.95 17.5 19.95Z" fill="#39C1D7"/>
<path d="M17.5 20.3C15.9561 20.3 14.7 19.0439 14.7 17.5C14.7 15.9562 15.9561 14.7 17.5 14.7C19.0438 14.7 20.3 15.9562 20.3 17.5C20.3 19.0439 19.0438 20.3 17.5 20.3ZM17.5 15.4C16.3418 15.4 15.4 16.3419 15.4 17.5C15.4 18.6582 16.3418 19.6 17.5 19.6C18.6581 19.6 19.6 18.6582 19.6 17.5C19.6 16.3419 18.6581 15.4 17.5 15.4Z" fill="#1F212B"/>
<path d="M30.975 17.5C30.975 15.6184 28.7091 13.9899 25.1937 13.0207C26.0974 9.48711 25.8192 6.70846 24.2043 5.76556C23.5673 5.39351 22.7945 5.32561 21.9076 5.56291C20.5713 5.92061 19.04 6.96641 17.5 8.50256C15.96 6.96641 14.4288 5.92096 13.0925 5.56291C12.2056 5.32526 11.4328 5.39351 10.7958 5.76556C9.18087 6.70846 8.90262 9.48676 9.80632 13.0207C6.29092 13.9899 4.02502 15.6184 4.02502 17.5C4.02502 19.3816 6.29092 21.0102 9.80632 21.9797C8.90262 25.5133 9.18087 28.2919 10.7958 29.2348C11.185 29.462 11.6246 29.5764 12.1104 29.5761C12.4194 29.5761 12.7474 29.5299 13.0925 29.4375C14.4288 29.0794 15.96 28.034 17.5 26.4978C19.04 28.034 20.5713 29.0794 21.9076 29.4375C22.2527 29.5299 22.5806 29.5761 22.8897 29.5761C23.3755 29.5761 23.8151 29.4623 24.2043 29.2348C25.8192 28.2919 26.0971 25.5133 25.1937 21.9797C28.7091 21.0102 30.975 19.3816 30.975 17.5ZM22.1792 6.57686C22.4329 6.50931 22.6681 6.47501 22.8848 6.47501C23.1858 6.47501 23.4504 6.54081 23.6747 6.67206C24.7569 7.30416 24.9778 9.61906 24.1717 12.7659C23.0612 12.516 21.8495 12.3281 20.5618 12.2119C19.8062 11.1223 19.0201 10.1304 18.228 9.26171C19.6343 7.85226 21.014 6.88906 22.1792 6.57686ZM21.2643 19.7047C20.8516 20.4278 20.4173 21.1204 19.9717 21.7833C19.1807 21.8425 18.3561 21.875 17.5 21.875C16.6439 21.875 15.8193 21.8425 15.0287 21.7833C14.5831 21.1204 14.1488 20.4278 13.7361 19.7047C13.3095 18.9571 12.9266 18.2207 12.5836 17.5004C12.9266 16.7801 13.3095 16.0437 13.7361 15.2957C14.1491 14.5723 14.5831 13.8796 15.029 13.2167C15.8197 13.1576 16.6439 13.125 17.5 13.125C18.3561 13.125 19.1804 13.1576 19.9714 13.2167C20.4169 13.8796 20.8513 14.5726 21.2643 15.2957C21.6909 16.0433 22.0738 16.7797 22.4168 17.5004C22.0738 18.2207 21.6909 18.9571 21.2643 19.7047ZM22.9754 18.7408C23.3398 19.6021 23.6408 20.4313 23.8844 21.2195C23.0881 21.3969 22.2285 21.545 21.3105 21.6545C21.6052 21.1904 21.8957 20.7158 22.176 20.2248C22.4599 19.7281 22.7248 19.2329 22.9754 18.7408ZM17.5 24.975C16.9274 24.3418 16.3559 23.6408 15.7976 22.8823C16.3548 22.9093 16.9218 22.925 17.5 22.925C18.0782 22.925 18.6452 22.9093 19.2024 22.8823C18.6442 23.6404 18.0726 24.3415 17.5 24.975ZM13.6892 21.6545C12.7715 21.545 11.9116 21.3969 11.1153 21.2195C11.3589 20.4313 11.6599 19.6018 12.0243 18.7408C12.2749 19.2329 12.5402 19.7281 12.8237 20.2248C13.1044 20.7162 13.3945 21.1908 13.6892 21.6545ZM12.0246 16.2596C11.6603 15.3983 11.3589 14.5688 11.1157 13.7802C11.9119 13.6028 12.7719 13.4547 13.6899 13.3452C13.3949 13.8093 13.1047 14.2842 12.8244 14.7753C12.5402 15.2723 12.2752 15.7675 12.0246 16.2596ZM17.5 10.0254C18.0726 10.6586 18.6442 11.3596 19.2024 12.1181C18.6452 12.0908 18.0782 12.075 17.5 12.075C16.9218 12.075 16.3548 12.0908 15.7976 12.1177C16.3559 11.3596 16.9274 10.6586 17.5 10.0254ZM22.176 14.7756C21.8957 14.2842 21.6052 13.8096 21.3105 13.3455C22.2285 13.4551 23.0881 13.6031 23.8847 13.7806C23.6411 14.5691 23.3401 15.3983 22.9758 16.26C22.7248 15.7675 22.4599 15.2723 22.176 14.7756ZM11.3253 6.67206C11.55 6.54081 11.8139 6.47501 12.1153 6.47501C12.3316 6.47501 12.5675 6.50931 12.8209 6.57686C13.986 6.88906 15.3657 7.85191 16.772 9.26136C15.98 10.1301 15.1939 11.1223 14.4382 12.2115C13.1506 12.3277 11.9385 12.5157 10.8283 12.7656C10.0223 9.61871 10.2431 7.30381 11.3253 6.67206ZM5.07502 17.5C5.07502 16.2414 6.96537 14.896 10.0923 14.0347C10.4314 15.1403 10.8766 16.3048 11.4244 17.5C10.8766 18.6953 10.4314 19.8597 10.0923 20.9654C6.96537 20.104 5.07502 18.7586 5.07502 17.5ZM12.8209 28.4232C12.2143 28.5849 11.7114 28.553 11.3253 28.3283C10.2431 27.6962 10.0226 25.3813 10.8283 22.2345C11.9385 22.4844 13.1506 22.6723 14.4379 22.7885C15.1935 23.8781 15.9796 24.87 16.7717 25.739C15.3657 27.1481 13.986 28.111 12.8209 28.4232ZM23.6747 28.3283C23.2887 28.5537 22.7861 28.5852 22.1792 28.4232C21.014 28.111 19.6343 27.1481 18.228 25.7387C19.0201 24.87 19.8062 23.8777 20.5618 22.7882C21.8495 22.672 23.0612 22.484 24.1714 22.2341C24.9778 25.3813 24.7569 27.6962 23.6747 28.3283ZM24.9078 20.9654C24.5686 19.8597 24.1234 18.6953 23.5757 17.5C24.1234 16.3048 24.5686 15.14 24.9078 14.0347C28.0347 14.896 29.925 16.2414 29.925 17.5C29.925 18.7586 28.0347 20.104 24.9078 20.9654Z" fill="#39C1D7"/>
<path d="M14.2294 27.6295C13.7146 27.6295 13.2435 27.5066 12.8291 27.2644C11.2079 26.3177 10.805 23.6678 11.7168 19.9806C8.06244 18.9414 5.97119 17.2688 5.97119 15.3788C5.97119 13.4888 8.06244 11.8161 11.7164 10.777C10.805 7.08974 11.2079 4.43989 12.8291 3.49314C13.5074 3.09624 14.3246 3.02204 15.2591 3.27264C16.5604 3.62124 18.0661 4.60964 19.6212 6.13529C21.1766 4.60964 22.6823 3.62124 23.9832 3.27264C24.9174 3.02274 25.735 3.09694 26.4136 3.49314C28.0345 4.43989 28.4373 7.08974 27.5259 10.777C31.1799 11.8161 33.2712 13.4888 33.2712 15.3788C33.2712 17.2688 31.1799 18.9414 27.5259 19.9806C28.4373 23.6678 28.0348 26.3173 26.4136 27.2644C25.7392 27.6582 24.9135 27.7341 23.9836 27.4849C22.6819 27.1363 21.1762 26.1479 19.6212 24.6226C18.0661 26.1479 16.5604 27.1367 15.2591 27.4849C14.9011 27.5808 14.5553 27.6295 14.2315 27.6295C14.2308 27.6295 14.2301 27.6295 14.2294 27.6295ZM14.2326 3.47844C13.7772 3.47844 13.3667 3.58414 13.0051 3.79554C11.5267 4.65899 11.1872 7.29834 12.0969 10.8561C12.1203 10.9485 12.0657 11.043 11.9737 11.0682C8.43449 12.044 6.32119 13.6557 6.32119 15.3788C6.32119 17.1018 8.43449 18.7136 11.974 19.6894C12.0661 19.7146 12.1207 19.8091 12.0972 19.9015C11.1872 23.4592 11.5267 26.0989 13.0051 26.962C13.3656 27.1724 13.7776 27.2791 14.2294 27.2791C14.2301 27.2791 14.2308 27.2791 14.2315 27.2791C14.5248 27.2791 14.8398 27.2347 15.1685 27.1468C16.4449 26.8049 17.9422 25.8042 19.4976 24.2523C19.5659 24.1844 19.6765 24.1844 19.7447 24.2523C21.3001 25.8039 22.7974 26.8045 24.0739 27.1468C24.9118 27.3705 25.6436 27.3082 26.2372 26.962C27.7156 26.0986 28.0551 23.4592 27.1451 19.9015C27.1217 19.8091 27.1763 19.7146 27.2683 19.6894C30.8079 18.7136 32.9212 17.1018 32.9212 15.3788C32.9212 13.6557 30.8079 12.044 27.2683 11.0682C27.1763 11.043 27.1217 10.9485 27.1451 10.8561C28.0548 7.29834 27.7153 4.65864 26.2369 3.79554C25.6422 3.44799 24.9142 3.38604 24.0735 3.61074C22.7971 3.95269 21.3001 4.95334 19.7444 6.50524C19.6761 6.57314 19.5655 6.57314 19.4973 6.50524C17.9415 4.95334 16.4446 3.95269 15.1681 3.61074C14.8388 3.52254 14.5266 3.47844 14.2326 3.47844ZM25.0063 26.5784C24.7742 26.5784 24.5236 26.5427 24.2552 26.471C23.0893 26.1584 21.696 25.2148 20.2253 23.741C20.1595 23.6748 20.157 23.5684 20.2197 23.4995C21.0124 22.6301 21.7926 21.6434 22.5391 20.5672C22.5685 20.5245 22.6154 20.4972 22.6672 20.4926C23.9314 20.3785 25.1382 20.1934 26.2544 19.9421C26.3457 19.9214 26.4388 19.9774 26.4623 20.0695C27.2799 23.2625 27.0583 25.6723 25.8841 26.3579C25.6324 26.5049 25.3388 26.5784 25.0063 26.5784ZM20.591 23.6111C21.9739 24.974 23.2696 25.8445 24.3455 26.1329C24.9051 26.2823 25.3636 26.2564 25.7077 26.0559C26.7069 25.4721 26.8826 23.2303 26.1648 20.3204C25.105 20.5511 23.9678 20.7236 22.7803 20.8339C22.0747 21.8461 21.339 22.7792 20.591 23.6111ZM14.2361 26.5784C13.9036 26.5784 13.6099 26.5049 13.3583 26.3583C12.184 25.6723 11.9621 23.2625 12.7801 20.0695C12.8035 19.9778 12.8966 19.9228 12.988 19.9421C14.1038 20.1934 15.3106 20.3785 16.5751 20.4926C16.6266 20.4972 16.6738 20.5245 16.7032 20.5672C17.4498 21.6434 18.2299 22.6301 19.0227 23.4995C19.0857 23.5684 19.0832 23.6748 19.0171 23.741C17.5464 25.2145 16.153 26.1584 14.9875 26.471C14.7187 26.5424 14.4678 26.5784 14.2361 26.5784ZM13.0776 20.3204C12.3597 23.23 12.5354 25.4721 13.5347 26.0559C13.8784 26.2561 14.3369 26.2823 14.8969 26.1329C15.9728 25.8445 17.2685 24.9737 18.6513 23.6111C17.9037 22.7792 17.168 21.8461 16.4624 20.8339C15.2749 20.7236 14.1374 20.5511 13.0776 20.3204ZM19.6212 23.0284C19.5718 23.0284 19.5246 23.0074 19.4913 22.9706C18.9093 22.327 18.3328 21.6182 17.7777 20.8643C17.7378 20.8101 17.7326 20.7373 17.7644 20.6778C17.7963 20.6183 17.8558 20.5819 17.9272 20.5857C19.0843 20.6421 20.1581 20.6421 21.3152 20.5857C21.3852 20.5815 21.4461 20.6183 21.4779 20.6778C21.5098 20.7373 21.5049 20.8097 21.4646 20.8643C20.9095 21.6179 20.3331 22.3266 19.751 22.9706C19.7178 23.0074 19.6705 23.0284 19.6212 23.0284ZM18.2796 20.9522C18.7175 21.5314 19.1676 22.0813 19.6212 22.5916C20.0751 22.0813 20.5249 21.5318 20.9627 20.9522C20.0485 20.9872 19.1938 20.9872 18.2796 20.9522ZM19.6212 19.9288C18.792 19.9288 17.9562 19.898 17.1365 19.8367C17.083 19.8329 17.0343 19.8045 17.0042 19.7597C16.5363 19.0636 16.0991 18.3604 15.705 17.6702C15.292 16.9464 14.9021 16.2009 14.5465 15.454C14.5238 15.4064 14.5238 15.3511 14.5465 15.3035C14.9021 14.5566 15.292 13.8111 15.705 13.0873C16.0988 12.3978 16.5359 11.6947 17.0046 10.9975C17.0343 10.953 17.0833 10.9247 17.1369 10.9205C18.7763 10.798 20.4664 10.798 22.1055 10.9205C22.159 10.9243 22.2077 10.9527 22.2378 10.9975C22.7064 11.6947 23.1436 12.3978 23.5373 13.0873C23.9503 13.8111 24.3402 14.5566 24.6958 15.3035C24.7186 15.3511 24.7186 15.4064 24.6958 15.454C24.3402 16.2009 23.9503 16.9464 23.5373 17.6702C23.1432 18.3604 22.7061 19.0636 22.2381 19.7597C22.2084 19.8042 22.1594 19.8325 22.1058 19.8367C21.2861 19.898 20.4503 19.9288 19.6212 19.9288ZM17.2475 19.4937C18.8151 19.6064 20.4272 19.6064 21.9945 19.4937C22.4401 18.8277 22.8566 18.156 23.2332 17.4963C23.628 16.8043 24.0014 16.0924 24.3437 15.3788C24.0014 14.6651 23.628 13.9529 23.2332 13.2613C22.8569 12.6022 22.4404 11.9306 21.9942 11.2635C20.4265 11.1508 18.8148 11.1508 17.2471 11.2635C16.8012 11.9306 16.3844 12.6022 16.0081 13.2613C15.6133 13.9532 15.2399 14.6651 14.8976 15.3788C15.2399 16.0924 15.6133 16.8047 16.0081 17.4963C16.3854 18.1564 16.8019 18.8277 17.2475 19.4937ZM23.432 19.7086C23.3725 19.7086 23.3161 19.6782 23.2839 19.6271C23.2479 19.5697 23.2482 19.4969 23.2843 19.4398C23.6091 18.9285 23.8908 18.463 24.1453 18.0171C24.4127 17.5488 24.6801 17.0518 24.9408 16.5404C24.9716 16.4799 25.0364 16.4438 25.1029 16.4452C25.1708 16.4477 25.2313 16.489 25.2579 16.552C25.6132 17.3916 25.9208 18.2313 26.1728 19.0471C26.1875 19.0937 26.1816 19.1444 26.1571 19.1864C26.1326 19.2288 26.0913 19.2589 26.0437 19.2694C25.2212 19.4531 24.3493 19.6005 23.4526 19.7076C23.4456 19.7083 23.4386 19.7086 23.432 19.7086ZM25.0798 17.0346C24.8719 17.4329 24.6605 17.8204 24.4494 18.1903C24.2454 18.548 24.0238 18.918 23.7774 19.3135C24.4669 19.2218 25.1389 19.1059 25.7819 18.968C25.5799 18.3331 25.3447 17.6853 25.0798 17.0346ZM15.8104 19.7086C15.8034 19.7086 15.7964 19.7083 15.7894 19.7076C14.893 19.6001 14.0212 19.4528 13.1987 19.269C13.1511 19.2585 13.1101 19.2284 13.0853 19.1861C13.0608 19.1437 13.0552 19.0933 13.0695 19.0468C13.3215 18.2306 13.6292 17.3913 13.9844 16.5516C14.011 16.489 14.0716 16.4473 14.1395 16.4449C14.2032 16.4382 14.2707 16.4795 14.3015 16.5401C14.5623 17.0514 14.8297 17.5484 15.0971 18.0167C15.3519 18.4626 15.6336 18.9281 15.9581 19.4395C15.9945 19.4965 15.9945 19.5693 15.9584 19.6267C15.9262 19.6782 15.8702 19.7086 15.8104 19.7086ZM13.4608 18.968C14.1038 19.1059 14.7758 19.2218 15.4653 19.3135C15.2185 18.918 14.9973 18.548 14.7933 18.1903C14.5819 17.8204 14.3708 17.4326 14.1629 17.0346C13.8976 17.6853 13.6624 18.3331 13.4608 18.968ZM27.0289 19.0191C26.9537 19.0191 26.8847 18.9705 26.8616 18.8952C26.5204 17.7826 26.0748 16.6241 25.5379 15.4519C25.5166 15.4057 25.5166 15.3522 25.5379 15.306C26.0748 14.1338 26.5204 12.975 26.862 11.862C26.89 11.7713 26.9859 11.7206 27.0758 11.7447C30.2496 12.6194 32.2212 14.0117 32.2212 15.3788C32.2212 16.7459 30.2493 18.1382 27.0751 19.0128C27.0597 19.017 27.044 19.0191 27.0289 19.0191ZM25.8893 15.3788C26.3919 16.483 26.8144 17.5757 27.1455 18.6296C30.0221 17.8095 31.8712 16.5415 31.8712 15.3788C31.8712 14.2161 30.0221 12.948 27.1455 12.128C26.814 13.1822 26.3916 14.2749 25.8893 15.3788ZM12.2134 19.0191C12.198 19.0191 12.1826 19.017 12.1669 19.0128C8.99309 18.1382 7.02119 16.7459 7.02119 15.3788C7.02119 14.0117 8.99274 12.6194 12.1669 11.7447C12.2572 11.7206 12.3527 11.7713 12.3807 11.862C12.7223 12.975 13.1679 14.1338 13.7048 15.306C13.7261 15.3522 13.7261 15.4054 13.7048 15.4519C13.1675 16.6244 12.7223 17.7829 12.3811 18.8952C12.358 18.9705 12.2887 19.0191 12.2134 19.0191ZM12.0969 12.128C9.22024 12.948 7.37119 14.2161 7.37119 15.3788C7.37119 16.5415 9.22024 17.8095 12.0969 18.6296C12.4283 17.5757 12.8504 16.4834 13.353 15.3788C12.8508 14.2749 12.4283 13.1822 12.0969 12.128ZM25.0969 14.3137C25.0311 14.3137 24.9709 14.277 24.9408 14.2182C24.6759 13.6974 24.4155 13.214 24.1456 12.7412C23.8915 12.296 23.6098 11.8305 23.2843 11.3181C23.2479 11.261 23.2479 11.1882 23.2839 11.1308C23.32 11.0738 23.3844 11.0423 23.453 11.0503C24.35 11.1578 25.2219 11.3051 26.0444 11.4885C26.092 11.499 26.1329 11.5291 26.1578 11.5715C26.1823 11.6138 26.1879 11.6642 26.1735 11.7108C25.9212 12.5284 25.6132 13.368 25.2586 14.2066C25.232 14.2693 25.1715 14.3109 25.1036 14.3134C25.1008 14.3137 25.0987 14.3137 25.0969 14.3137ZM24.4491 12.5676C24.6629 12.9421 24.8708 13.3229 25.0794 13.7233C25.344 13.0737 25.5792 12.4251 25.7812 11.7895C25.1382 11.6516 24.4662 11.5358 23.7764 11.4441C24.0242 11.8403 24.2454 12.2102 24.4491 12.5676ZM14.1454 14.3137C14.1433 14.3137 14.1412 14.3137 14.1391 14.3137C14.0712 14.3113 14.0107 14.27 13.9841 14.207C13.6295 13.3684 13.3215 12.5287 13.0692 11.7111C13.0545 11.6646 13.0604 11.6138 13.0849 11.5718C13.1094 11.5295 13.1507 11.4994 13.1983 11.4889C14.0208 11.3051 14.8927 11.1578 15.7897 11.0507C15.858 11.0437 15.9227 11.0741 15.9588 11.1312C15.9948 11.1886 15.9945 11.2614 15.9584 11.3184C15.6329 11.8308 15.3512 12.2963 15.0971 12.7415C14.8272 13.2144 14.5668 13.6974 14.3019 14.2185C14.2714 14.277 14.2112 14.3137 14.1454 14.3137ZM13.4608 11.7895C13.6628 12.4251 13.8983 13.0737 14.1626 13.7233C14.3715 13.3229 14.5791 12.9421 14.7929 12.5676C14.997 12.2102 15.2182 11.8403 15.4653 11.4441C14.7758 11.5358 14.1038 11.6516 13.4608 11.7895ZM26.2932 10.8197C26.2803 10.8197 26.2677 10.8183 26.2547 10.8155C25.1389 10.5642 23.9318 10.379 22.6672 10.2649C22.6158 10.2604 22.5685 10.2331 22.5391 10.1904C21.7926 9.11379 21.0121 8.12749 20.2197 7.25844C20.1567 7.18949 20.1591 7.08309 20.2253 7.01694C21.6956 5.54344 23.0893 4.59914 24.2552 4.28694C24.9093 4.11194 25.4585 4.15149 25.8841 4.39964C27.0583 5.08564 27.2802 7.49539 26.4626 10.6884C26.4423 10.7668 26.3716 10.8197 26.2932 10.8197ZM22.7799 9.92369C23.9675 10.0339 25.105 10.2065 26.1648 10.4371C26.8826 7.52759 26.7069 5.28549 25.7073 4.70169C25.3647 4.50184 24.9055 4.47559 24.3455 4.62469C23.2696 4.91309 21.9735 5.78389 20.5907 7.14679C21.3386 7.97804 22.0743 8.91114 22.7799 9.92369ZM12.9491 10.8197C12.8707 10.8197 12.8 10.7668 12.7797 10.6881C11.9621 7.49504 12.1837 5.08564 13.3579 4.39964C13.7835 4.15149 14.3337 4.11194 14.9868 4.28694C16.153 4.59949 17.5464 5.54344 19.0167 7.01694C19.0825 7.08309 19.085 7.18949 19.0223 7.25844C18.2299 8.12749 17.4494 9.11414 16.7029 10.1904C16.6735 10.2331 16.6266 10.2604 16.5748 10.2649C15.3106 10.379 14.1034 10.5642 12.9873 10.8155C12.9747 10.8183 12.9621 10.8197 12.9491 10.8197ZM13.5347 4.70169C12.5354 5.28549 12.3597 7.52759 13.0772 10.4371C14.137 10.2065 15.2745 10.0339 16.4621 9.92369C17.168 8.91114 17.9034 7.97804 18.651 7.14644C17.2681 5.78354 15.9724 4.91274 14.8962 4.62434C14.3386 4.47559 13.8787 4.50149 13.5347 4.70169ZM21.3236 10.1715C21.3208 10.1715 21.318 10.1715 21.3152 10.1715C20.1581 10.1151 19.0846 10.1151 17.9275 10.1715C17.8554 10.1732 17.7966 10.1386 17.7648 10.0794C17.7329 10.0199 17.7378 9.94749 17.7781 9.89289C18.3335 9.13864 18.91 8.42989 19.4917 7.78659C19.5582 7.71344 19.6849 7.71344 19.7514 7.78659C20.3327 8.42954 20.9092 9.13829 21.465 9.89289C21.5049 9.94714 21.5101 10.0199 21.4783 10.0794C21.4471 10.1361 21.3876 10.1715 21.3236 10.1715ZM19.6212 9.77879C20.0559 9.77879 20.5056 9.78789 20.9627 9.80574C20.5245 9.22579 20.0744 8.67594 19.6212 8.16634C19.1679 8.67629 18.7178 9.22579 18.2796 9.80574C18.7367 9.78789 19.1865 9.77879 19.6212 9.77879Z" fill="#1F212B"/>
</svg>
